<?xml version="1.0" encoding="UTF-8"?>
<svg id="Mini_TS_Hero" xmlns="http://www.w3.org/2000/svg" version="1.1" viewBox="0 0 371 372">
  <!-- Generator: Adobe Illustrator 29.8.2, SVG Export Plug-In . SVG Version: 2.1.1 Build 3)  -->
  <defs>
    <style>
      .st0 {
        fill: #fff;
        fill-rule: evenodd;
      }

      .st1 {
        fill: #3277bd;
      }

      .st2 {
        fill: #e54146;
      }
    </style>
  </defs>
  <g>
    <path id="Circle" class="st1" d="M365.6,184.5c0,99.4-80.6,180-180,180S5.5,283.9,5.5,184.5,86.1,4.4,185.5,4.4s180,80.6,180,180ZM352.9,184.6c0-92.5-75-167.4-167.4-167.4S18.1,92.1,18.1,184.6s75,167.4,167.4,167.4,167.4-75,167.4-167.4Z"/>
    <path id="Hero" class="st1" d="M216,169c1,2.8,4.7,1.7,7,2.4,15.6,4.7,36.2,16.7,46.5,29.5s9.1,14.2,4.8,22.7c-5,9.9-22.2,26-31.9,32.1s-4.1.9-4.4,1.8c1.4,20.7,7,41,8,61.7,5.5.7,12.2,10,7.8,14.4s-29.9,1.9-32.7.7c-4.5-1.9-14-27.8-17.2-33.8-6.3-12.2-15.7-27.3-30.8-14.1s-15,29.3-20.2,39.8-4,8-11.3,8.7-21.7.4-25.5-1.6-2.7-8.5,0-11,5-.7,6.6-7.4c4.3-18,4.8-39,8.5-57.4-12.2-4.5-39.6-25.8-41.8-38.4-1.9-11,14.6-25.5,22.9-31.7s24.5-14.5,37.9-18.1c-2.7-1.5-5.7-2.6-8.2-4.5s-10.2-10.6-11.8-11.5-7.2-.1-10.3-.7c-12.8-2.5-19.4-21.4-13.9-32.5,1.3-2.6,4.3-3.9,5-7s-.2-9.4.2-13.8c1.4-13.8,11.2-32.3,21.5-41.5,12-10.7,33.6-19.6,50-20,14.9-.4,29.7,6.3,43.9,4.9,9.1-.9,19.6-8.9,21.4,4.9s-7.8,22.3-7.6,23.6,2.9,3.8,3.7,5.4c16.7,34.2,8.2,75.8-27.8,92.3ZM150.5,196,239,226c3.1,0,8.3-6.9,8.1-9.5s-5.7-5.3-8.1-5.5v15ZM131,212c-.5-.6-8.1,2.7-7.9,5.3s7.8,9.9,8.9,8.7l-1-14Z"/>
    <path id="Cape" class="st2" d="M118,292c-21.1-1.8-39.8-9.6-54-25.5-3.9-4.4-18.1-23.9-12.8-29.2,3.1-3.1,15.3-.3,19.3-.4s11.5-3.8,16-3.9,2.9,0,4,1c4.1,4.6,9.1,11.6,13.4,15.6s17.8,10,18.6,11.5c2.4,4.8-6.5,24.1-4.5,31Z"/>
  </g>
  <path id="TS" class="st0" d="M188.1,221.4v8.8c1.4.7,3.1,1.3,5.1,1.7s4,.6,6.2.6,4.1-.2,6-.6c1.9-.4,3.6-1.1,5-2,1.4-.9,2.6-2.1,3.4-3.6s1.3-3.4,1.3-5.6-.2-3-.7-4.2-1.2-2.3-2.1-3.2c-.9-.9-2-1.8-3.2-2.5s-2.7-1.5-4.3-2.1c-1.2-.5-2.2-.9-3.1-1.4-.9-.5-1.7-.9-2.3-1.4-.6-.5-1.1-1-1.5-1.5-.4-.5-.5-1.1-.5-1.8s.2-1.2.5-1.6.8-.9,1.3-1.3c.6-.3,1.3-.6,2.1-.8.8-.2,1.8-.3,2.8-.3s1.5,0,2.3.2c.8.1,1.6.3,2.5.5.8.2,1.6.5,2.4.9.8.4,1.5.8,2.2,1.2v-8.3c-1.3-.5-2.8-.9-4.4-1.1s-3.4-.4-5.5-.4-4.1.2-6,.7-3.5,1.2-5,2.1c-1.4,1-2.6,2.2-3.4,3.7-.8,1.5-1.2,3.3-1.2,5.3s.8,4.9,2.3,6.7c1.5,1.9,3.8,3.4,6.9,4.7,1.2.5,2.3,1,3.4,1.5s2,1,2.7,1.5c.8.5,1.4,1.1,1.8,1.7.4.6.7,1.3.7,2.1s-.1,1.1-.4,1.6-.7.9-1.3,1.3-1.3.6-2.1.8c-.8.2-1.8.3-2.9.3-1.9,0-3.8-.3-5.7-1-1.9-.7-3.6-1.7-5.2-3h0ZM173.2,199.6h11.3v-7.3h-31.6v7.3h11.3v32.3h9v-32.3Z"/>
</svg>